
<svg viewBox="0 0 902 669" version="1.1" xmlns="http://www.w3.org/2000/svg" xmlns:xlink="http://www.w3.org/1999/xlink">
    <linearGradient x1="34.053098%" y1="23.4273775%" x2="83.7759766%" y2="66.0898763%" id="linearGradient-1">
        <stop stop-color="#FF6437" offset="0%"></stop>
        <stop stop-color="#FFC864" offset="100%"></stop>
    </linearGradient>
    <g stroke="none" stroke-width="1" fill="none" fill-rule="evenodd">
        <g transform="rotate(15)" fill="url(#linearGradient-1)">
            <g transform="translate(40.000000, -200.000000)">
                <path d="M509.867023,573.877713 C580.10534,564.821449 645.62071,614.744918 658.111665,688.677259 C671.006556,765.085413 622.394369,837.991595 549.499393,851.527126 C492.373471,862.130773 437.438127,832.991104 410.079207,783.149076 C391.591351,793.850453 371.192565,801.636234 349.255714,805.708295 C242.181508,825.579953 140.001146,750.686605 121.04721,638.428025 C102.093273,526.169445 173.527864,419.057951 280.60207,399.186293 C387.676276,379.314635 489.841101,454.191694 508.795038,566.450274 C509.21451,568.926087 509.540766,571.4019 509.867023,573.877713 Z M791.160532,112.925285 C808.824979,217.577255 742.237625,317.424193 642.434273,335.943926 C542.615386,354.479948 447.379622,284.668533 429.699639,180.016563 C412.035191,75.3808819 478.622546,-24.482344 578.441433,-43.0020778 C678.244785,-61.5380999 773.480548,8.28960356 791.160532,112.925285 Z M565.552756,486.463592 C536.826667,491.789848 509.421139,471.706443 504.340863,441.589479 C499.24505,411.472515 518.416491,382.740052 547.14258,377.413797 C575.853133,372.087541 603.258661,392.170946 608.354474,422.28791 C613.43475,452.404873 594.278846,481.137336 565.552756,486.463592 Z" id="10" transform="translate(456.000000, 403.856611) rotate(269.000000) translate(-456.000000, -403.856611) ">
              </path>
            </g>
        </g>
    </g>
</svg>
